<svg width="24" height="24" viewBox="0 0 24 24" fill="none" xmlns="http://www.w3.org/2000/svg">
<path d="M14.4751 12.5L7.12511 5.15C6.87511 4.9 6.75428 4.60417 6.76261 4.2625C6.77094 3.92083 6.90011 3.625 7.15011 3.375C7.40011 3.125 7.69594 3 8.03761 3C8.37928 3 8.67511 3.125 8.92511 3.375L16.6001 11.075C16.8001 11.275 16.9501 11.5 17.0501 11.75C17.1501 12 17.2001 12.25 17.2001 12.5C17.2001 12.75 17.1501 13 17.0501 13.25C16.9501 13.5 16.8001 13.725 16.6001 13.925L8.90011 21.625C8.65011 21.875 8.35844 21.9958 8.02511 21.9875C7.69178 21.9792 7.40011 21.85 7.15011 21.6C6.90011 21.35 6.77511 21.0542 6.77511 20.7125C6.77511 20.3708 6.90011 20.075 7.15011 19.825L14.4751 12.5Z" fill="#464646"/>
</svg>
