<svg width="24" height="24" viewBox="0 0 24 24" fill="#BDBDBD" xmlns="http://www.w3.org/2000/svg">
<path d="M11 20V18H9V16H11V13.9C9.68333 13.6667 8.60417 13.0375 7.7625 12.0125C6.92083 10.9875 6.5 9.8 6.5 8.45C6.5 6.93333 7.0375 5.64583 8.1125 4.5875C9.1875 3.52917 10.4833 3 12 3C13.5167 3 14.8125 3.52917 15.8875 4.5875C16.9625 5.64583 17.5 6.93333 17.5 8.45C17.5 9.8 17.0792 10.9875 16.2375 12.0125C15.3958 13.0375 14.3167 13.6667 13 13.9V16H15V18H13V20H11ZM12 12C12.9667 12 13.7917 11.6583 14.475 10.975C15.1583 10.2917 15.5 9.46667 15.5 8.5C15.5 7.53333 15.1583 6.70833 14.475 6.025C13.7917 5.34167 12.9667 5 12 5C11.0333 5 10.2083 5.34167 9.525 6.025C8.84167 6.70833 8.5 7.53333 8.5 8.5C8.5 9.46667 8.84167 10.2917 9.525 10.975C10.2083 11.6583 11.0333 12 12 12Z" fill="#BDBDBD"/>
</svg>
