<svg width="24" height="24" viewBox="0 0 24 24" fill="none" xmlns="http://www.w3.org/2000/svg">
<rect width="24" height="24" fill="#28CAE2"/>
<path d="M9 21V19L15 18V6.875C15 6.625 14.925 6.4 14.775 6.2C14.625 6 14.4333 5.88333 14.2 5.85L9 5V3L14.5 3.9C15.2333 4.03333 15.8333 4.375 16.3 4.925C16.7667 5.475 17 6.11667 17 6.85V19.65L9 21ZM5 21V19H7V5C7 4.43333 7.19583 3.95833 7.5875 3.575C7.97917 3.19167 8.45 3 9 3H19C19.5667 3 20.0417 3.19167 20.425 3.575C20.8083 3.95833 21 4.43333 21 5V19H23V21H5ZM9 19H19V5H9V19Z" fill="white"/>
<rect width="4" height="10" transform="translate(6 7)" fill="#28CAE2"/>
<path d="M7.90112 8.1255L7.90105 8.12543L7.89808 8.12861C7.76427 8.27165 7.69271 8.44142 7.68657 8.63415C7.68026 8.83204 7.75431 9.00532 7.90112 9.14917L9.55604 10.7708H2.64205C2.43559 10.7708 2.25748 10.8403 2.1146 10.9803C1.97161 11.1204 1.9 11.2959 1.9 11.5C1.9 11.7041 1.97161 11.8796 2.1146 12.0197C2.25748 12.1597 2.43559 12.2292 2.64205 12.2292H9.55604L7.90112 13.8508C7.75431 13.9947 7.68026 14.168 7.68657 14.3659C7.69271 14.5586 7.76427 14.7283 7.89808 14.8714L7.89801 14.8715L7.90112 14.8745C8.04713 15.0176 8.22341 15.0936 8.4256 15.0996C8.6299 15.1057 8.80858 15.0347 8.95603 14.8902L11.8934 12.0118C11.9667 11.94 12.0212 11.8596 12.0538 11.7702C12.0849 11.685 12.1 11.5947 12.1 11.5C12.1 11.4053 12.0849 11.315 12.0538 11.2298C12.0212 11.1404 11.9667 11.06 11.8934 10.9882L8.95603 8.10977C8.80858 7.96529 8.6299 7.89429 8.4256 7.90036C8.22341 7.90636 8.04713 7.98242 7.90112 8.1255Z" fill="white" stroke="white" stroke-width="0.2"/>
</svg>
